<?xml version="1.0" encoding="utf-8"?>
<!-- Generator: Adobe Illustrator 16.0.0, SVG Export Plug-In . SVG Version: 6.00 Build 0)  -->
<!DOCTYPE svg PUBLIC "-//W3C//DTD SVG 1.1//EN" "http://www.w3.org/Graphics/SVG/1.1/DTD/svg11.dtd">
<svg version="1.1" id="Capa_1" xmlns="http://www.w3.org/2000/svg" xmlns:xlink="http://www.w3.org/1999/xlink" x="0px" y="0px"
	 width="654.286px" height="360px" viewBox="0 0 654.286 360" enable-background="new 0 0 654.286 360" xml:space="preserve">
<path d="M481.779,226.163c-11.261,0-20.396,9.119-20.396,20.363c0,11.25,9.136,20.37,20.396,20.37
	c11.267,0,20.404-9.12,20.404-20.37C502.184,235.282,493.046,226.163,481.779,226.163 M627.962,63.262
	c-2.934-5.981-11.4-14.586-26.824-9.892c-5.381,1.637-14.754,6.203-23.305,22.13c-5.391,10.042-8.676,19.825-15.088,37.89
	l-27.096-0.185v11.918h23.836l-41.504,137.31l19.91-0.126l37.596-137.182l25.717-0.001v-11.918l-23.742-0.39
	c0,0,7.077-31.615,22.006-48.412c5.061-5.693,10.456-4.416,13.321-3.154c1.934,0.852,2.986,3.823,2.767,5.281
	c-0.67,4.443-2.012,7.293-5.996,9.591c-3.344,1.928-3.556,5.899-3.184,8.847c0.554,2.948,1.984,5.345,4.291,7.182
	c2.305,1.845,4.934,2.767,7.89,2.767c2.958,0,5.354-0.922,7.206-2.767c1.838-1.836,3.184-3.958,4.016-6.355
	c0.826-2.392,1.536-7.193,1.536-11.552C630.812,68.627,627.962,63.262,627.962,63.262z M434.686,126.404l-33.935,73.821
	l-34.074-73.821h-34.069l67.876,140.492l68.409-140.492H434.686z M236.332,164.059c1.89-2.972,4.167-5.512,6.826-7.63
	c2.656-2.11,5.609-3.727,8.854-4.86c3.246-1.118,6.717-1.685,10.412-1.685c16.226,0,26.453,8.098,30.691,24.3h-61.111
	C232.993,170.402,234.436,167.026,236.332,164.059 M283.245,228.836c-4.96,3.598-11.224,5.395-18.793,5.395
	c-9.736,0-17.712-3.142-23.931-9.444c-6.218-6.385-9.736-14.979-10.545-25.775h94.37l0.135-7.153
	c0-21.684-5.591-38.643-16.766-50.878c-11.27-12.326-26.589-18.495-45.969-18.495c-19.198,0-34.613,6.343-46.238,19.032
	c-11.537,12.868-17.304,29.7-17.304,50.474c0,20.964,5.947,37.795,17.846,50.476c11.898,12.601,27.669,18.896,47.321,18.896
	c6.848,0,13.202-0.721,19.064-2.164c5.857-1.432,11.308-3.701,16.356-6.809c5.049-3.11,9.781-7.064,14.197-11.884
	c4.415-4.807,8.608-10.593,12.572-17.338l-25.687-14.31C293.655,218.577,288.108,225.241,283.245,228.836 M137.011,228.161
	c-6.946,7.739-16.047,11.603-27.312,11.603c-10.545,0-19.292-3.997-26.227-12.011c-6.763-7.915-10.141-18.169-10.141-30.768
	c0-11.786,3.465-21.685,10.409-29.69c7.03-7.917,15.771-11.877,26.229-11.877c11.086,0,20.095,3.914,27.041,11.745
	c6.938,8.004,10.409,18.17,10.409,30.498C147.42,209.992,143.949,220.151,137.011,228.161 M145.525,146.917
	c-12.167-12.597-25.956-18.899-41.37-18.899c-17.759,0-32.497,6.619-44.209,19.842c-11.811,13.138-17.715,29.518-17.715,49.125
	c0,20.072,5.904,36.804,17.715,50.205c11.896,13.143,26.857,19.707,44.884,19.707c15.144,0,28.708-5.848,40.695-17.541v13.763h30.56
	V35.167h-30.56V146.917z"/>
<text transform="matrix(1 0 0 1 66.4297 327.519)" font-family="'Helvetica-Light'" font-size="44.3227">desarrollamos(personas);</text>
</svg>